<?xml version="1.0" encoding="utf-8"?>
<!-- Generator: Adobe Illustrator 15.0.2, SVG Export Plug-In . SVG Version: 6.00 Build 0)  -->
<!DOCTYPE svg PUBLIC "-//W3C//DTD SVG 1.1//EN" "http://www.w3.org/Graphics/SVG/1.1/DTD/svg11.dtd">
<svg version="1.1" id="Ebene_1" xmlns="http://www.w3.org/2000/svg" xmlns:xlink="http://www.w3.org/1999/xlink" x="0px" y="0px"
	 width="850.39px" height="226.77px" viewBox="0 0 850.39 226.77" enable-background="new 0 0 850.39 226.77" xml:space="preserve">
<rect y="0.002" fill="#FFFFFF" width="850.39" height="226.77"/>
<g>
	<path d="M26.192,187.364l2.049-0.373c1.399-0.272,2.21-0.916,2.21-4.264v-21.232c0-3.345-0.809-3.991-2.21-4.263l-2.049-0.377
		v-1.562c1.078,0.051,4.313,0.104,6.091,0.104c3.45,0,8.033,0,11.214-0.054c3.45-0.052,4.526-0.163,5.875-0.216
		c0,2.479,0.108,5.663,0.218,7.333H47.7l-0.483-2.48c-0.27-1.237-0.973-2.152-2.909-2.152l-9.704-0.053v13.476h7.491
		c1.89,0,2.156-0.484,2.318-1.401l0.538-2.588h1.673c-0.055,1.351-0.163,3.234-0.163,4.958c0,1.46,0.108,3.881,0.163,5.229h-1.671
		l-0.482-2.315c-0.159-0.916-0.482-1.563-2.374-1.563h-7.491v9.163c0,3.348,0.809,4.103,2.21,4.265l3.235,0.374v1.563
		c-1.35-0.055-4.904-0.164-7.333-0.164c-2.531,0-5.177,0.109-6.521,0.164v-1.563L26.192,187.364L26.192,187.364z"/>
	<path d="M53.69,187.419l1.777-0.271c1.237-0.215,1.778-0.535,1.778-4.31v-13.156c0-2.749,0-3.395-3.502-4.092v-1.296
		c2.803-0.812,4.795-1.401,7.492-2.588v4.038c1.348-1.888,4.583-3.771,6.792-3.771c0.969,0,1.671,0.161,2.317,0.32l-0.435,3.719
		c-0.645-0.323-1.994-0.485-2.962-0.485c-1.889,0-4.046,0.7-5.716,2.051v15.26c0,3.771,0.593,4.149,1.775,4.31l2.48,0.271v1.512
		c-1.348-0.057-4.258-0.217-6.307-0.217c-2.104,0-4.15,0.16-5.499,0.217L53.69,187.419L53.69,187.419z"/>
	<path d="M72.849,182.893c0-5.064,4.475-8.301,11.373-8.301c0.755,0,2.104,0,2.909,0.056v-3.132c0-4.148-1.831-6.356-6.034-6.356
		c-2.481,0-4.476,0.535-6.146,1.453l-0.27-1.562c1.292-1.505,4.42-3.069,7.386-3.069c6.09,0,9.107,3.338,9.107,8.569
		c0,4.203-0.217,8.301-0.217,13.149c0,2.645,0.974,3.396,4.259,3.396v1.512c-0.917,0.592-2.531,0.969-4.096,0.969
		c-2.479,0-3.935-1.457-3.935-3.666H87.08c-0.972,1.617-3.882,3.666-7.172,3.666C75.758,189.577,72.849,186.829,72.849,182.893z
		 M86.916,184.076c0-1.94,0.107-5.979,0.164-7.113c-0.594-0.054-1.512-0.054-2.104-0.054c-5.554,0-8.033,1.99-8.033,5.282
		c0,2.642,1.779,4.255,4.422,4.255C83.842,186.447,85.839,185.316,86.916,184.076z"/>
	<path d="M98.566,187.419l1.774-0.271c1.24-0.156,1.78-0.535,1.78-4.31v-23.773c0-2.75,0-3.396-3.505-4.1v-1.289
		c2.801-0.812,4.796-1.564,7.495-2.912v32.075c0,3.771,0.588,4.149,1.774,4.311l1.778,0.271v1.512
		c-1.349-0.056-3.555-0.165-5.604-0.165c-2.104,0-4.152,0.109-5.496,0.165L98.566,187.419L98.566,187.419z M115.545,186.178
		c-2.212-2.267-4.526-5.604-8.945-11.21l6.848-7.708c0.752-0.812,1.021-1.515,1.021-2.048c0-0.596-0.379-0.917-2.05-1.028v-1.562
		c1.352,0.055,3.287,0.105,5.282,0.105c1.729,0,3.396-0.055,4.746-0.105v1.508c-2.808,0.219-5.981,3.021-8.194,5.501l-3.719,4.098
		c3.123,3.881,7.489,9.379,9.165,10.939c1.399,1.295,2.585,2.751,4.635,2.911v1.4c-0.595,0.325-1.67,0.38-2.585,0.38
		C119.48,189.361,117.485,188.118,115.545,186.178z"/>
	<path d="M129.642,183.216v-18.062h-3.292v-1.729c3.396-1.832,4.641-3.828,5.557-7.114h1.724v6.312h7.816v2.529h-7.816v17.143
		c0,3.232,0.97,4.584,3.611,4.584c1.508,0,3.184-0.38,3.937-0.65l0.216,1.081c-0.753,1.237-3.396,2.268-5.877,2.268
		C131.147,189.577,129.642,187.634,129.642,183.216z"/>
	<path d="M145.068,187.419l2.476-0.271c1.244-0.156,1.78-0.535,1.78-4.31v-13.156c0-2.749,0-3.395-3.503-4.092v-1.296
		c2.802-0.812,4.797-1.455,7.491-2.588v21.132c0,3.771,0.594,4.148,1.777,4.31l1.944,0.271v1.511
		c-1.35-0.054-3.725-0.163-5.769-0.163c-2.106,0-4.857,0.109-6.2,0.163L145.068,187.419L145.068,187.419z M148.085,153.618
		c0-1.561,1.289-2.854,2.854-2.854c1.562,0,2.859,1.295,2.859,2.854c0,1.562-1.297,2.856-2.859,2.856
		C149.376,156.477,148.085,155.181,148.085,153.618z"/>
	<path d="M162.055,175.993c0-7.656,4.738-14.018,12.348-14.018c7.812,0,12.069,5.655,12.069,13.582
		c0,7.707-4.799,14.018-12.45,14.018C166.152,189.577,162.055,184.076,162.055,175.993z M182,176.099
		c0-7.114-2.642-11.915-7.814-11.915c-4.798,0-7.601,4.425-7.601,11.323c0,7.387,2.907,11.854,7.759,11.854
		C179.409,187.364,182,182.943,182,176.099z"/>
	<path d="M192.424,187.419l1.774-0.271c1.242-0.215,1.781-0.535,1.781-4.31v-13.156c0-2.749,0-3.395-3.504-4.092v-1.296
		c2.802-0.812,4.799-1.401,7.487-2.588v3.771c1.779-1.669,4.855-3.502,7.711-3.502c6.364,0,8.195,3.665,8.195,9.108v11.754
		c0,3.771,0.592,4.095,1.775,4.31l1.778,0.271v1.512c-1.351-0.056-3.557-0.165-5.604-0.165c-2.104,0-4.149,0.109-5.499,0.165v-1.512
		l1.773-0.271c1.243-0.215,1.778-0.535,1.778-4.31v-11.159c0-4.101-1.074-6.521-5.656-6.521c-2.43,0-4.854,1.188-6.259,2.104v15.581
		c0,3.771,0.6,4.095,1.78,4.31l1.781,0.271v1.512c-1.349-0.055-3.562-0.164-5.604-0.164c-2.104,0-4.154,0.109-5.499,0.164
		L192.424,187.419L192.424,187.419z"/>
	<path d="M235.842,187.419l2.475-0.271c1.245-0.156,1.783-0.535,1.783-4.31v-13.156c0-2.749,0-3.395-3.506-4.092v-1.296
		c2.804-0.812,4.8-1.455,7.489-2.588v21.132c0,3.771,0.597,4.148,1.78,4.31l1.944,0.271v1.511c-1.351-0.054-3.728-0.163-5.771-0.163
		c-2.105,0-4.854,0.109-6.198,0.163L235.842,187.419L235.842,187.419z M238.859,153.618c0-1.561,1.29-2.854,2.854-2.854
		c1.564,0,2.859,1.295,2.859,2.854c0,1.562-1.295,2.856-2.859,2.856C240.15,156.477,238.859,155.181,238.859,153.618z"/>
	<path d="M253.693,187.419l1.772-0.271c1.243-0.215,1.779-0.535,1.779-4.31v-13.156c0-2.749,0-3.395-3.502-4.092v-1.296
		c2.803-0.812,4.798-1.455,7.49-2.588v3.771c1.675-1.723,4.692-3.502,7.549-3.502c3.934,0,6.092,1.505,7.114,3.986
		c1.995-1.996,5.5-3.986,8.354-3.986c6.363,0,7.929,3.614,7.929,9.055v11.812c0,3.771,0.596,4.095,1.777,4.31l1.777,0.271v1.512
		c-1.343-0.056-3.558-0.165-5.604-0.165c-2.103,0-4.15,0.109-5.499,0.165v-1.512l1.778-0.271c1.239-0.215,1.782-0.534,1.782-4.31
		v-11.213c0-4.101-0.812-6.471-5.396-6.471c-2.422,0-5.064,1.238-6.469,2.152c0.27,1.135,0.38,2.37,0.38,3.72v11.812
		c0,3.771,0.593,4.095,1.774,4.31l1.78,0.271v1.512c-1.351-0.056-3.558-0.165-5.604-0.165c-2.102,0-4.148,0.109-5.499,0.165v-1.512
		l1.779-0.271c1.238-0.215,1.772-0.534,1.772-4.31v-11.213c0-4.101-0.806-6.312-5.388-6.312c-2.427,0-4.693,1.028-6.094,1.943
		v15.581c0,3.771,0.595,4.095,1.78,4.31l1.777,0.271v1.512c-1.349-0.055-3.561-0.164-5.604-0.164c-2.105,0-4.153,0.109-5.497,0.164
		L253.693,187.419L253.693,187.419z"/>
	<path d="M317.814,188.825c-1.938,0-3.771,0.053-5.657,0.104v-1.562l2.044-0.374c1.407-0.272,2.211-0.917,2.211-4.265v-21.233
		c0-3.344-0.805-3.99-2.211-4.264l-2.044-0.374v-1.562c1.617,0.052,3.501,0.104,5.657,0.104c2.371,0,5.394-0.154,8.301-0.154
		c10.834,0,16.55,6.789,16.55,15.953c0,10.399-7.007,17.786-17.681,17.786C322.127,188.981,319.917,188.825,317.814,188.825z
		 M337.978,171.947c0-7.329-3.349-14.285-13.152-14.285c-1.511,0-2.749,0.058-4.26,0.165v25.392c0,2.102,0.325,3.396,4.364,3.396
		C333.232,186.612,337.978,181.163,337.978,171.947z"/>
	<path d="M347.642,176.21c0-8.197,4.9-14.231,11.914-14.231c6.687,0,9.918,5.017,9.918,10.238c0,0.701,0,1.243-0.107,1.942h-17.407
		c-0.059,0.538-0.059,1.073-0.059,1.563c0,5.819,2.912,10.671,8.947,10.671c3.074,0,5.396-0.646,7.114-1.513l0.162,1.348
		c-1.025,1.679-4.417,3.348-8.3,3.348C351.898,189.577,347.642,184.456,347.642,176.21z M363.76,172
		c0.917,0,1.235-0.426,1.235-1.187c0-3.182-1.885-6.468-5.657-6.468c-4.526,0-6.795,3.987-7.228,7.648L363.76,172L363.76,172z"/>
	<path d="M392.88,186.075c-1.771,1.668-4.852,3.501-7.703,3.501c-6.362,0-8.194-3.666-8.194-9.11V168.66
		c0-2.749,0-3.396-3.504-4.098v-1.296c2.533-0.428,4.8-0.857,7.495-1.56v18.167c0,4.092,1.072,6.521,5.654,6.521
		c2.432,0,4.854-1.186,6.253-2.101v-15.639c0-2.748,0-3.396-3.503-4.097v-1.296c2.534-0.428,4.8-0.858,7.496-1.562v20.809
		c0,2.749,0,3.396,3.501,4.1v1.295c-2.428,0.32-5.014,0.917-7.494,1.669L392.88,186.075L392.88,186.075z"/>
	<path d="M408.477,183.216v-18.062h-3.292v-1.729c3.396-1.832,4.64-3.828,5.558-7.114h1.722v6.312h7.816v2.529h-7.816v17.143
		c0,3.232,0.97,4.584,3.612,4.584c1.507,0,3.184-0.38,3.938-0.65l0.216,1.081c-0.754,1.237-3.396,2.268-5.877,2.268
		C409.984,189.577,408.477,187.634,408.477,183.216z"/>
	<path d="M424.442,188.334c0.104-2.533,0-4.525-0.164-7.062h1.997c0.484,3.826,1.618,5.929,6.203,5.929
		c3.394,0,5.763-1.887,5.763-4.902c0-6.736-13.528-3.449-13.528-13.205c0-4.313,3.883-7.114,9.114-7.114
		c2.749,0,5.552,0.754,7.162,1.399c-0.104,2.312-0.056,3.718,0.104,6.035h-1.989c-0.272-3.449-1.886-5.229-5.499-5.229
		c-3.23,0-5.332,1.408-5.332,4.152c0,6.256,13.58,3.664,13.58,13.312c0,4.312-3.939,7.927-9.323,7.927
		C429.188,189.577,426.599,189.034,424.442,188.334z"/>
	<path d="M447.479,176.21c0-8.032,5.868-14.231,12.938-14.231c2.854,0,5.396,0.646,7.161,1.29c-0.156,1.781-0.211,4.365-0.211,6.146
		h-2.055c-0.158-3.068-1.4-5.117-5.226-5.117c-4.582,0-8.406,4.205-8.406,11.371c0,6.896,3.931,10.729,9.544,10.729
		c2.424,0,4.637-0.596,6.246-1.67l0.271,1.401c-0.968,1.613-3.99,3.448-7.983,3.448C452.062,189.577,447.479,184.397,447.479,176.21
		z"/>
	<path d="M472.771,187.419l1.779-0.271c1.229-0.215,1.779-0.535,1.779-4.31v-23.773c0-2.75,0-3.396-3.511-4.1v-1.289
		c2.805-0.812,4.794-1.564,7.489-2.912v14.716c1.782-1.668,4.856-3.501,7.714-3.501c6.362,0,8.194,3.771,8.194,9.217v11.646
		c0,3.771,0.591,4.095,1.778,4.311l1.779,0.271v1.512c-1.35-0.055-3.562-0.164-5.616-0.164c-2.095,0-4.147,0.109-5.497,0.164v-1.512
		l1.779-0.271c1.243-0.216,1.779-0.535,1.779-4.311v-11.058c0-4.091-1.073-6.626-5.655-6.626c-2.425,0-4.854,1.188-6.26,2.104v15.58
		c0,3.771,0.604,4.095,1.783,4.311l1.777,0.271v1.512c-1.35-0.056-3.562-0.164-5.604-0.164c-2.106,0-4.149,0.108-5.499,0.164
		L472.771,187.419L472.771,187.419z"/>
	<path d="M504.384,176.21c0-8.197,4.896-14.231,11.914-14.231c6.682,0,9.913,5.017,9.913,10.238c0,0.701,0,1.243-0.104,1.942
		h-17.413c-0.052,0.538-0.052,1.073-0.052,1.563c0,5.819,2.908,10.671,8.941,10.671c3.075,0,5.396-0.646,7.118-1.513l0.159,1.348
		c-1.021,1.679-4.415,3.348-8.3,3.348C508.643,189.577,504.384,184.456,504.384,176.21z M520.503,172c0.917,0,1.23-0.426,1.23-1.187
		c0-3.182-1.885-6.468-5.657-6.468c-4.525,0-6.795,3.987-7.226,7.648L520.503,172L520.503,172z"/>
	<path d="M531.511,187.419l1.771-0.271c1.244-0.215,1.78-0.535,1.78-4.31v-13.156c0-2.749,0-3.395-3.499-4.092v-1.296
		c2.803-0.812,4.795-1.401,7.489-2.588v3.771c1.778-1.669,4.849-3.502,7.713-3.502c6.361,0,8.195,3.665,8.195,9.108v11.754
		c0,3.771,0.591,4.095,1.77,4.31l1.78,0.271v1.512c-1.352-0.056-3.55-0.165-5.604-0.165c-2.106,0-4.15,0.109-5.499,0.165v-1.512
		l1.779-0.271c1.241-0.215,1.78-0.535,1.78-4.31v-11.159c0-4.101-1.075-6.521-5.656-6.521c-2.435,0-4.854,1.188-6.259,2.104v15.581
		c0,3.771,0.592,4.095,1.778,4.31l1.781,0.271v1.512c-1.349-0.055-3.562-0.164-5.611-0.164c-2.104,0-4.151,0.109-5.491,0.164
		L531.511,187.419L531.511,187.419z"/>
	<path d="M580.695,188.825c-2,0-4.425,0.053-5.771,0.104v-1.562l2.045-0.374c1.411-0.272,2.215-0.917,2.215-4.265v-21.233
		c0-3.344-0.804-3.99-2.215-4.264l-2.045-0.374v-1.562c1.351,0.052,3.51,0.052,5.656,0.052c3.128,0,5.666-0.163,7.764-0.163
		c6.742,0,10.305,3.02,10.305,8.196c0,3.771-3.508,6.789-6.583,7.489v0.058c3.835,0.323,8.09,3.29,8.09,8.19
		c0,6.096-5.29,9.918-12.937,9.918C585.004,189.034,582.201,188.825,580.695,188.825z M594.115,163.758
		c0-4.098-2.433-6.146-7.063-6.146c-0.646,0-2.637,0-3.721,0.104v12.347c1.242,0.104,1.945,0.104,3.938,0.104
		C591.684,170.169,594.115,166.992,594.115,163.758z M595.567,179.549c0-4.151-2.589-6.952-7.657-6.952
		c-1.397,0-3.495,0.052-4.58,0.162v10.887c0,1.994,0.433,3.021,4.317,3.021C592.98,186.667,595.567,184.026,595.567,179.549z"/>
	<path d="M624.202,186.075c-1.771,1.668-4.847,3.501-7.7,3.501c-6.359,0-8.193-3.666-8.193-9.11V168.66c0-2.749,0-3.396-3.509-4.098
		v-1.296c2.537-0.428,4.805-0.857,7.5-1.56v18.167c0,4.092,1.075,6.521,5.659,6.521c2.421,0,4.844-1.186,6.243-2.101v-15.639
		c0-2.748,0-3.396-3.499-4.097v-1.296c2.527-0.428,4.796-0.858,7.49-1.562v20.809c0,2.749,0,3.396,3.507,4.1v1.295
		c-2.432,0.32-5.014,0.917-7.499,1.669L624.202,186.075L624.202,186.075z"/>
	<path d="M637.4,187.419l1.771-0.271c1.245-0.215,1.778-0.535,1.778-4.31v-13.156c0-2.749,0-3.395-3.496-4.092v-1.296
		c2.803-0.812,4.791-1.401,7.486-2.588v3.771c1.779-1.669,4.85-3.502,7.712-3.502c6.364,0,8.197,3.665,8.197,9.108v11.754
		c0,3.771,0.589,4.095,1.771,4.31l1.78,0.271v1.512c-1.351-0.056-3.55-0.165-5.604-0.165c-2.106,0-4.148,0.109-5.498,0.165v-1.512
		l1.778-0.271c1.241-0.215,1.778-0.535,1.778-4.31v-11.159c0-4.101-1.074-6.521-5.656-6.521c-2.434,0-4.854,1.188-6.258,2.104
		v15.581c0,3.771,0.592,4.095,1.778,4.31l1.78,0.271v1.512c-1.35-0.055-3.562-0.164-5.614-0.164c-2.098,0-4.148,0.109-5.487,0.164
		v-1.516H637.4L637.4,187.419z"/>
	<path d="M669.311,176.693c0-9.108,6.19-14.395,14.662-14.395c1.127,0,1.989,0.105,2.854,0.27v-3.504c0-2.75,0-3.396-3.507-4.1
		v-1.289c2.804-0.812,4.805-1.564,7.489-2.912v31.48c0,2.749,0,3.396,3.508,4.098v1.291c-2.591,0.481-4.636,0.915-7.49,1.94v-2.53
		c-1.619,1.45-4.098,2.53-6.741,2.53C673.345,189.577,669.311,183.913,669.311,176.693z M686.826,185.371v-19.729
		c-0.703-0.327-2.054-0.918-3.885-0.918c-5.386,0-9.431,3.287-9.431,10.999c0,5.438,2.806,10.777,8.194,10.777
		C683.804,186.502,685.048,186.178,686.826,185.371z"/>
	<path d="M699.458,176.21c0-8.197,4.896-14.231,11.913-14.231c6.68,0,9.913,5.017,9.913,10.238c0,0.701,0,1.243-0.104,1.942h-17.413
		c-0.052,0.538-0.052,1.073-0.052,1.563c0,5.819,2.906,10.671,8.939,10.671c3.076,0,5.395-0.646,7.122-1.513l0.156,1.348
		c-1.021,1.679-4.414,3.348-8.301,3.348C703.716,189.577,699.458,184.456,699.458,176.21z M715.576,172
		c0.917,0,1.231-0.426,1.231-1.187c0-3.182-1.887-6.468-5.657-6.468c-4.524,0-6.794,3.987-7.228,7.648L715.576,172L715.576,172z"/>
	<path d="M726.425,188.334c0.104-2.533,0-4.525-0.168-7.062h2.001c0.482,3.826,1.61,5.929,6.196,5.929
		c3.4,0,5.771-1.887,5.771-4.902c0-6.736-13.535-3.449-13.535-13.205c0-4.313,3.886-7.114,9.109-7.114
		c2.75,0,5.554,0.754,7.174,1.399c-0.114,2.312-0.053,3.718,0.104,6.035h-1.985c-0.273-3.449-1.898-5.229-5.502-5.229
		c-3.233,0-5.342,1.408-5.342,4.152c0,6.256,13.59,3.664,13.59,13.312c0,4.312-3.939,7.927-9.333,7.927
		C731.167,189.577,728.574,189.034,726.425,188.334z"/>
	<path d="M752.414,183.216v-18.062h-3.284v-1.729c3.395-1.832,4.638-3.828,5.55-7.114h1.729v6.312h7.818v2.529h-7.818v17.143
		c0,3.232,0.973,4.584,3.614,4.584c1.509,0,3.183-0.38,3.929-0.65l0.226,1.081c-0.76,1.237-3.399,2.268-5.877,2.268
		C753.921,189.577,752.414,187.634,752.414,183.216z"/>
	<path d="M767.468,182.893c0-5.064,4.479-8.301,11.376-8.301c0.76,0,2.099,0,2.905,0.056v-3.132c0-4.148-1.83-6.356-6.035-6.356
		c-2.475,0-4.478,0.535-6.144,1.453l-0.272-1.562c1.299-1.505,4.427-3.069,7.39-3.069c6.085,0,9.106,3.338,9.106,8.569
		c0,4.203-0.209,8.301-0.209,13.149c0,2.645,0.969,3.396,4.259,3.396v1.512c-0.917,0.592-2.539,0.969-4.102,0.969
		c-2.476,0-3.938-1.457-3.938-3.666h-0.106c-0.968,1.617-3.877,3.666-7.163,3.666C770.387,189.577,767.468,186.829,767.468,182.893z
		 M781.542,184.076c0-1.94,0.104-5.979,0.155-7.113c-0.59-0.054-1.506-0.054-2.096-0.054c-5.562,0-8.037,1.99-8.037,5.282
		c0,2.642,1.778,4.255,4.424,4.255C778.466,186.447,780.455,185.316,781.542,184.076z"/>
	<path d="M793.088,193.401c0-3.288,3.074-5.441,5.933-6.469c-1.834-0.645-3.021-1.938-3.021-3.608c0-1.995,1.62-3.724,3.453-4.643
		c-2.802-1.186-5.015-3.983-5.015-7.921c0-4.745,4.099-8.784,9.701-8.784c1.888,0,2.961,0.32,3.826,0.646h8.469v2.209h-5.173
		c1.396,1.35,2.423,3.502,2.423,5.767c0,5.066-4.203,8.948-9.545,8.948c-0.862,0-1.938-0.058-2.645-0.217
		c-1.35,0.646-1.938,1.615-1.938,2.531c0,1.134,1.244,2.104,3.394,2.21l4.425,0.222c5.287,0.216,8.895,2.265,8.895,6.252
		c0,5.979-5.658,9.482-13.424,9.482C797.396,200.032,793.088,197.661,793.088,193.401z M813.028,191.841
		c0-2.912-2.907-3.937-7.923-4.152l-3.771-0.162c-2.045,0.865-4.528,2.372-4.528,4.904c0,3.021,2.592,5.282,7.175,5.282
		C809.203,197.715,813.028,195.509,813.028,191.841z M809.582,170.71c0-3.614-1.937-6.414-5.55-6.414c-3.667,0-5.5,2.91-5.5,6.414
		c0,3.986,2.214,6.521,5.656,6.521C807.805,177.229,809.582,174.106,809.582,170.71z"/>
	<path fill="#C31923" d="M456.696,29.206c-10.301,27.324-31.417,56.181-68.887,62.354v15.8
		c48.704-4.436,82.267-27.226,100.912-48.083V29.208L456.696,29.206L456.696,29.206z"/>
	<path d="M387.808,78.484c21.554-6.801,32.419-33.155,34.087-49.276h-34.087V78.484z"/>
	<path fill="#E6C823" d="M387.808,119.868v10.211c46.092,0,86.962-3.774,100.913-7.735V94.675
		C465.84,107.412,422.229,118.381,387.808,119.868z"/>
	<path fill="#B9B9B9" d="M191.211,29.167h-53.434l-14.45,100.875h56.214c39.637,0,57.93-22.143,57.93-58.19
		C237.47,44.277,220.899,29.167,191.211,29.167L191.211,29.167z M181.663,50.772c17.104,0,23.333,7.952,23.333,22.803
		c0,21.338-9.811,34.327-30.498,34.327h-16.167l8.224-57.128h15.108V50.772L181.663,50.772z M112.992,103.13
		c-5.567,1.458-15.377,3.049-26.384,3.049c-22.269,0-31.813-9.935-31.813-24.651c0-21.606,17.635-29.828,39.242-29.828
		c11.53,0,20.683,2.787,23.591,3.719l3.449-23.731c-7.959-1.983-17.24-4.237-34.331-4.237c-34.731-0.003-65.487,17.227-65.487,54.08
		c0,28.63,18.429,50.375,56.202,50.375c13.789,0,27.312-2.658,31.947-4.64L112.992,103.13z M289.04,29.167h-33.138l-7.561,51.962
		c-4.903,33.798,12.189,50.772,47.332,50.772c39.075,0,53.021-20.289,57.393-51.037l7.428-51.697h-31.947l-7.688,53.956
		c-2.122,14.977-8.893,24.775-22.752,24.775c-13.739,0-19.271-8.08-16.745-25.709L289.04,29.167z"/>
	<path fill="#B9B9B9" d="M605.63,103.138c-5.565,1.455-15.367,3.05-26.354,3.05c-22.25,0-31.781-9.928-31.781-24.629
		c0-21.582,17.613-29.79,39.197-29.79c11.518,0,20.646,2.778,23.569,3.705l3.438-23.702c-7.947-1.978-17.213-4.235-34.294-4.235
		c-34.694,0-65.414,17.218-65.414,54.022c0,28.604,18.396,50.316,56.146,50.316c13.771,0,27.275-2.654,31.912-4.637L605.63,103.138z
		 M646.146,132.527c32.84,0,61.562-11.646,61.562-35.213c0-14.034-12.843-21.571-28.598-27.532l-6.355-2.386
		c-12.312-4.64-17.348-6.886-17.348-11.651c0-4.767,6.099-7.416,17.614-7.416c13.774,0,23.569,4.232,32.565,8.08l4.104-23.043
		c-7.14-2.521-19.062-6.621-39.188-6.621c-27.4,0-51.116,11.521-51.116,31.645c0,14.171,11.136,21.982,24.503,27.678l5.956,2.52
		c13.513,5.688,19.465,7.409,19.465,12.583c0,5.021-6.741,8.596-21.706,8.596c-14.036,0-24.24-4.097-31.651-7.947l-3.574,24.901
		C617.67,128.83,628.263,132.527,646.146,132.527L646.146,132.527z M757.768,29.257h-33.104l-7.559,51.904
		c-4.898,33.761,12.188,50.712,47.281,50.712c39.035,0,52.962-20.262,57.318-50.976l7.432-51.645H797.22l-7.68,53.896
		c-2.115,14.959-8.88,24.756-22.729,24.756c-13.729,0-19.251-8.077-16.729-25.682L757.768,29.257z"/>
</g>
</svg>
